#define 7ac14891e02148afcf677ed66a3550ean8CFGlq2DtPRycbI_width 128
#define 7ac14891e02148afcf677ed66a3550ean8CFGlq2DtPRycbI_height 53
static char 7ac14891e02148afcf677ed66a3550ean8CFGlq2DtPRycbI_bits[] = {
  0x00, 0x00, 0x00, 0x00, 0x00, 0x00, 0x00, 0x00, 0x00, 0x00, 0x00, 0x00, 
  0x00, 0x00, 0x00, 0x00, 0x00, 0x00, 0x00, 0x00, 0x00, 0x00, 0x00, 0x00, 
  0x00, 0x00, 0x00, 0x00, 0x00, 0x80, 0xFF, 0x03, 0x00, 0x02, 0x00, 0xA0, 
  0x46, 0x06, 0x80, 0x01, 0x00, 0x00, 0x00, 0xFE, 0x01, 0x08, 0xFE, 0x03, 
  0xE0, 0x0F, 0x00, 0xC0, 0xFF, 0x03, 0x80, 0x03, 0x00, 0x00, 0xF0, 0xFF, 
  0x3F, 0x0E, 0xF8, 0x07, 0xE0, 0x07, 0x00, 0x00, 0x7E, 0x00, 0xC0, 0x03, 
  0x00, 0x00, 0xFC, 0x03, 0xFE, 0x0F, 0xF0, 0x07, 0xE0, 0x07, 0x00, 0x00, 
  0x3E, 0x00, 0xE0, 0x03, 0x00, 0x00, 0x7F, 0x00, 0xF0, 0x0F, 0xF0, 0x07, 
  0xE0, 0x07, 0x00, 0x00, 0x1C, 0x00, 0xE0, 0x07, 0x00, 0xC0, 0x1F, 0x00, 
  0xC0, 0x0F, 0xE0, 0x07, 0xE0, 0x07, 0x00, 0x00, 0x1C, 0x00, 0xE0, 0x0F, 
  0x00, 0xE0, 0x0F, 0x00, 0x80, 0x0F, 0xF0, 0x07, 0xE0, 0x07, 0x00, 0x00, 
  0x1C, 0x00, 0xF0, 0x0F, 0x00, 0xF0, 0x07, 0x00, 0x00, 0x0F, 0xF0, 0x07, 
  0xE0, 0x07, 0x00, 0x00, 0x1C, 0x00, 0xF8, 0x1F, 0x00, 0xF8, 0x03, 0x00, 
  0x00, 0x0E, 0xE0, 0x07, 0xE0, 0x07, 0x00, 0x00, 0x1C, 0x00, 0xB8, 0x1F, 
  0x00, 0xFC, 0x01, 0x00, 0x00, 0x1C, 0xF0, 0x07, 0xE0, 0x07, 0x00, 0x00, 
  0x18, 0x00, 0x18, 0x3F, 0x00, 0xFC, 0x00, 0x00, 0x00, 0x0C, 0xE0, 0x07, 
  0xE0, 0x07, 0x00, 0x00, 0x1C, 0x00, 0x1C, 0x3F, 0x00, 0xFE, 0x00, 0x00, 
  0x00, 0x18, 0xE0, 0x07, 0xE0, 0x07, 0x00, 0x00, 0x1C, 0x00, 0x0E, 0x7E, 
  0x00, 0xFE, 0x00, 0x00, 0x00, 0x08, 0xF0, 0x07, 0xE0, 0x07, 0x00, 0x00, 
  0x1C, 0x00, 0x0E, 0x7E, 0x00, 0x7F, 0x00, 0x00, 0x00, 0x00, 0xE0, 0x07, 
  0xE0, 0x07, 0x00, 0x00, 0x1C, 0x00, 0x07, 0xFE, 0x00, 0x7F, 0x00, 0x00, 
  0x00, 0x00, 0xF0, 0x07, 0xE0, 0x07, 0x00, 0x00, 0x1C, 0x00, 0x07, 0xFC, 
  0x00, 0x7F, 0x00, 0x00, 0x00, 0x00, 0xF0, 0x07, 0xE0, 0x07, 0x00, 0x00, 
  0x1C, 0x80, 0x03, 0xF8, 0x01, 0x7F, 0x00, 0x00, 0x00, 0x00, 0xE0, 0x07, 
  0xE0, 0x07, 0x00, 0x00, 0x1C, 0x80, 0x03, 0xF8, 0x81, 0x7F, 0x00, 0x00, 
  0x00, 0x00, 0xF0, 0x07, 0xE0, 0x07, 0x00, 0x00, 0x18, 0xC0, 0x01, 0xF0, 
  0x03, 0x7F, 0x00, 0x00, 0x00, 0x00, 0xE0, 0x07, 0xE0, 0x07, 0x00, 0x00, 
  0x1C, 0xC0, 0x01, 0xF0, 0x03, 0x7F, 0x00, 0x00, 0x00, 0x00, 0xE0, 0x07, 
  0xE0, 0x07, 0x00, 0x00, 0x1C, 0xE0, 0x00, 0xE0, 0x87, 0x7F, 0x00, 0x00, 
  0x00, 0x00, 0xE0, 0x07, 0xE0, 0x07, 0x00, 0x00, 0x1C, 0xE0, 0x00, 0xE0, 
  0x0F, 0x7F, 0x00, 0x00, 0x00, 0x00, 0xF0, 0x07, 0xE0, 0x07, 0x00, 0x00, 
  0x1C, 0x70, 0x00, 0xC0, 0x0F, 0x7F, 0x00, 0x00, 0x00, 0x00, 0xE0, 0x07, 
  0xE0, 0x07, 0x00, 0x00, 0x1C, 0x70, 0x20, 0x80, 0x1F, 0x7F, 0x00, 0x00, 
  0x00, 0x00, 0xE0, 0x07, 0xE0, 0x07, 0x00, 0x00, 0x1C, 0x38, 0xF8, 0x81, 
  0x1F, 0x7F, 0x00, 0x00, 0x00, 0x00, 0xF0, 0x07, 0xE0, 0x0F, 0x00, 0x00, 
  0x1C, 0x38, 0xF8, 0x83, 0x3F, 0xFE, 0x00, 0x00, 0x00, 0x00, 0xE0, 0x07, 
  0xE0, 0x07, 0x00, 0x00, 0x1C, 0x1C, 0xFC, 0x03, 0x3F, 0xFE, 0x00, 0x00, 
  0x00, 0x00, 0xE0, 0x07, 0xE0, 0x07, 0x00, 0x00, 0x1C, 0x1C, 0xF8, 0x03, 
  0x7F, 0xFE, 0x01, 0x00, 0x00, 0x00, 0xE0, 0x07, 0xE0, 0x0F, 0x00, 0x00, 
  0x0C, 0x0E, 0xF8, 0x01, 0x7E, 0xFC, 0x01, 0x00, 0x00, 0x00, 0xE0, 0x07, 
  0xC0, 0x0F, 0x00, 0x00, 0x0E, 0x0E, 0x40, 0x00, 0xFC, 0xF8, 0x03, 0x00, 
  0x00, 0x00, 0xE0, 0x07, 0xC0, 0x0F, 0x00, 0x00, 0x0E, 0x07, 0x00, 0x00, 
  0xFC, 0xF8, 0x07, 0x00, 0x00, 0x18, 0xE0, 0x07, 0x80, 0x1F, 0x00, 0x00, 
  0x07, 0x07, 0x00, 0x00, 0xF8, 0xE1, 0x0F, 0x00, 0x00, 0x0E, 0xE0, 0x07, 
  0x80, 0x3F, 0x00, 0x80, 0x83, 0x03, 0x00, 0x00, 0xF8, 0xC1, 0x1F, 0x00, 
  0x00, 0x07, 0xE0, 0x07, 0x00, 0xFE, 0x00, 0xE0, 0xC1, 0x07, 0x00, 0x00, 
  0xF0, 0x83, 0xFF, 0x00, 0xC0, 0x01, 0xE0, 0x07, 0x00, 0xFC, 0x07, 0xFC, 
  0xE0, 0x07, 0x00, 0x00, 0xF0, 0x07, 0xFE, 0x17, 0xFE, 0x00, 0xE0, 0x07, 
  0x00, 0xF0, 0xFF, 0x3F, 0xFC, 0x7F, 0x00, 0x00, 0xE0, 0x07, 0xF0, 0xFF, 
  0x1F, 0x00, 0xE0, 0x07, 0x00, 0x80, 0xFF, 0x07, 0x00, 0x00, 0x00, 0x00, 
  0x00, 0x00, 0x00, 0xFD, 0x01, 0x00, 0xE0, 0x07, 0x00, 0x00, 0x00, 0x00, 
  0x00, 0x00, 0x00, 0x00, 0x00, 0x00, 0x00, 0x00, 0x00, 0x00, 0xE0, 0x07, 
  0x00, 0x00, 0x00, 0x00, 0x00, 0x00, 0x00, 0x00, 0x00, 0x00, 0x00, 0x00, 
  0x00, 0x00, 0xF0, 0x03, 0x00, 0x00, 0x00, 0x00, 0x00, 0x00, 0x00, 0x00, 
  0x00, 0x00, 0x00, 0x00, 0x00, 0x00, 0xF0, 0x03, 0x00, 0x00, 0x00, 0x00, 
  0x00, 0x00, 0x00, 0x00, 0x00, 0x00, 0x00, 0x00, 0x00, 0x00, 0xE0, 0x03, 
  0x00, 0x00, 0x00, 0x00, 0x00, 0x00, 0x00, 0x00, 0x00, 0x00, 0x00, 0x00, 
  0x00, 0x00, 0xF0, 0x01, 0x00, 0x00, 0x00, 0x00, 0x00, 0x00, 0x00, 0x00, 
  0x00, 0x00, 0x00, 0x00, 0x00, 0x00, 0xF0, 0x00, 0x00, 0x00, 0x00, 0x00, 
  0x00, 0x00, 0x00, 0x00, 0x00, 0x00, 0x00, 0x00, 0x00, 0x00, 0xF0, 0x00, 
  0x00, 0x00, 0x00, 0x00, 0x00, 0x00, 0x00, 0x00, 0x00, 0x00, 0x00, 0x00, 
  0x00, 0x00, 0x78, 0x00, 0x00, 0x00, 0x00, 0x00, 0x00, 0x00, 0x00, 0x00, 
  0x00, 0x00, 0x00, 0x00, 0xE0, 0x03, 0x38, 0x00, 0x00, 0x00, 0x00, 0x00, 
  0x00, 0x00, 0x00, 0x00, 0x00, 0x00, 0x00, 0x00, 0xF0, 0x07, 0x0E, 0x00, 
  0x00, 0x00, 0x00, 0x00, 0x00, 0x00, 0x00, 0x00, 0x00, 0x00, 0x00, 0x00, 
  0xF0, 0x8F, 0x07, 0x00, 0x00, 0x00, 0x00, 0x00, 0x00, 0x00, 0x00, 0x00, 
  0x00, 0x00, 0x00, 0x00, 0xF0, 0xFF, 0x01, 0x00, 0x00, 0x00, 0x00, 0x00, 
  0x00, 0x00, 0x00, 0x00, 0x00, 0x00, 0x00, 0x00, 0xE0, 0x7F, 0x00, 0x00, 
  0x00, 0x00, 0x00, 0x00, 0x00, 0x00, 0x00, 0x00, 0x00, 0x00, 0x00, 0x00, 
  0x80, 0x0F, 0x00, 0x00, 0x00, 0x00, 0x00, 0x00, 0x00, 0x00, 0x00, 0x00, 
  0x00, 0x00, 0x00, 0x00, 0x00, 0x00, 0x00, 0x00, };
